<?xml version="1.0" encoding="iso-8859-1"?>
<!-- Generator: Adobe Illustrator 19.0.0, SVG Export Plug-In . SVG Version: 6.00 Build 0)  -->
<svg version="1.1" id="Layer_1" xmlns="http://www.w3.org/2000/svg" xmlns:xlink="http://www.w3.org/1999/xlink" x="0px" y="0px"
	 viewBox="0 0 280.027 280.027" style="enable-background:new 0 0 280.027 280.027;" xml:space="preserve">
<g>
	<path style="fill:#E2574C;" d="M87.509,26.244v177.485c-9.293-6.939-21.536-11.201-35.003-11.201
		C23.514,192.528,0,212.112,0,236.273c0,24.17,23.514,43.754,52.505,43.754c25.395,0,46.581-15.034,51.446-35.003l1.059-5.102
		V93.879l157.515-21.483v105.089c-9.293-6.966-21.536-11.219-35.003-11.219c-28.983,0-52.505,19.593-52.505,43.754
		c0,24.17,23.522,43.754,52.505,43.754s52.505-19.584,52.505-43.754V0L87.509,26.244z"/>
	<g>
		<path style="fill:#C04A40;" d="M236.273,245.024c-28.983,0-52.505-19.584-52.505-43.754c0-8.576,3.028-16.583,8.156-23.339
			c-10.379,7.99-16.907,19.392-16.907,32.089c0,24.17,23.522,43.754,52.505,43.754c18.701,0,35.056-8.173,44.349-20.416
			C262.517,240.578,250.029,245.024,236.273,245.024z M61.256,271.276c-28.992,0-52.505-19.584-52.505-43.754
			c0-8.576,3.019-16.583,8.147-23.33C6.528,212.182,0,223.584,0,236.273c0,24.17,23.514,43.754,52.505,43.754
			c18.858,0,35.371-8.305,44.621-20.757C87.727,266.665,75.187,271.276,61.256,271.276z"/>
	</g>
</g>
<g>
</g>
<g>
</g>
<g>
</g>
<g>
</g>
<g>
</g>
<g>
</g>
<g>
</g>
<g>
</g>
<g>
</g>
<g>
</g>
<g>
</g>
<g>
</g>
<g>
</g>
<g>
</g>
<g>
</g>
</svg>
