<?xml version="1.0" encoding="iso-8859-1"?>
<!-- Generator: Adobe Illustrator 19.0.0, SVG Export Plug-In . SVG Version: 6.00 Build 0)  -->
<svg version="1.1" id="Layer_1" xmlns="http://www.w3.org/2000/svg" xmlns:xlink="http://www.w3.org/1999/xlink" x="0px" y="0px"
	 viewBox="0 0 512 512" style="enable-background:new 0 0 512 512;" xml:space="preserve">
<path style="fill:#EA86A5;" d="M332.351,256c14.86,0,26.947-12.088,26.947-26.947c0-14.86-12.088-26.947-26.947-26.947
	s-26.947,12.088-26.947,26.947C305.404,243.912,317.491,256,332.351,256z"/>
<polygon style="fill:#C59981;" points="176.619,317.92 193.672,345.825 280.456,345.825 220.07,246.36 "/>
<path style="fill:#81A4E3;" d="M71.86,345.825h12.925l46.777-76.544c3.263-5.333,12.07-5.333,15.333,0l19.186,31.396l46.314-76.282
	c1.623-2.684,4.535-4.325,7.676-4.325c3.14,0,6.053,1.64,7.676,4.325l73.725,121.43h102.74v-179.65H71.86V345.825z M332.351,184.14
	c24.763,0,44.912,20.149,44.912,44.912s-20.149,44.912-44.912,44.912s-44.912-20.149-44.912-44.912S307.588,184.14,332.351,184.14z"
	/>
<polygon style="fill:#C59981;" points="105.842,345.825 143.719,345.825 172.614,345.825 139.228,291.193 "/>
<g>
	<circle style="fill:#D8D8D8;" cx="458.11" cy="256" r="8.982"/>
	<path style="fill:#D8D8D8;" d="M485,139.228H27c-5.07,0-9.035,3.912-9.035,8.903v215.737c0,4.913,4.053,8.904,9.035,8.904h458
		c5.07,0,9.035-3.912,9.035-8.903V148.131C494.035,143.219,489.982,139.228,485,139.228z M44.912,282.947H26.947V220.07h17.965
		C44.912,220.07,44.912,282.947,44.912,282.947z M422.175,354.807c0,4.965-4.018,8.982-8.982,8.982H296.421H188.632H143.72H89.825
		H62.877c-4.965,0-8.982-4.018-8.982-8.982V157.193c0-4.965,4.018-8.982,8.982-8.982h350.316c4.965,0,8.982,4.018,8.982,8.982
		V354.807z M458.105,282.947c-14.86,0-26.947-12.088-26.947-26.947c0-14.859,12.088-26.947,26.947-26.947
		S485.053,241.14,485.053,256S472.965,282.947,458.105,282.947z"/>
</g>
<g>
	<path style="fill:#314E55;" d="M485,121.263H27c-14.886,0-27,12.053-27,26.868v215.737c0,14.816,12.114,26.869,27,26.869h458
		c14.886,0,27-12.053,27-26.868V148.131C512,133.316,499.886,121.263,485,121.263z M494.035,363.869
		c0,4.991-3.965,8.903-9.035,8.903H27c-4.982,0-9.035-3.991-9.035-8.903V148.131c0-4.991,3.965-8.903,9.035-8.903h458
		c4.983,0,9.035,3.991,9.035,8.903V363.869z"/>
	<rect x="26.947" y="220.07" style="fill:#314E55;" width="17.965" height="62.877"/>
	<path style="fill:#314E55;" d="M458.105,229.053c-14.86,0-26.947,12.088-26.947,26.947c0,14.859,12.088,26.947,26.947,26.947
		S485.053,270.86,485.053,256C485.053,241.14,472.965,229.053,458.105,229.053z M458.105,264.982c-4.956,0-8.982-4.026-8.982-8.982
		c0-4.956,4.026-8.982,8.982-8.982s8.982,4.026,8.982,8.982C467.088,260.956,463.061,264.982,458.105,264.982z"/>
	<path style="fill:#314E55;" d="M413.193,148.211H62.877c-4.965,0-8.982,4.018-8.982,8.982v197.614c0,4.965,4.018,8.982,8.982,8.982
		h26.947h53.895h44.912H296.42h116.772c4.965,0,8.982-4.018,8.982-8.982V157.193C422.175,152.228,418.158,148.211,413.193,148.211z
		 M143.719,345.825h-37.877l33.386-54.632l33.386,54.632H143.719z M193.672,345.825l-17.053-27.905l43.451-71.56l60.386,99.465
		H193.672z M404.211,345.825h-102.74l-73.725-121.43c-1.623-2.684-4.535-4.325-7.676-4.325c-3.14,0-6.053,1.64-7.676,4.325
		l-46.314,76.282l-19.186-31.396c-3.263-5.333-12.07-5.333-15.333,0l-46.777,76.544H71.86v-179.65h332.351V345.825z"/>
	<path style="fill:#314E55;" d="M332.351,273.965c24.763,0,44.912-20.149,44.912-44.912s-20.149-44.912-44.912-44.912
		s-44.912,20.149-44.912,44.912S307.588,273.965,332.351,273.965z M332.351,202.105c14.86,0,26.947,12.088,26.947,26.947
		c0,14.86-12.088,26.947-26.947,26.947s-26.947-12.088-26.947-26.947C305.404,214.193,317.491,202.105,332.351,202.105z"/>
</g>
<g>
</g>
<g>
</g>
<g>
</g>
<g>
</g>
<g>
</g>
<g>
</g>
<g>
</g>
<g>
</g>
<g>
</g>
<g>
</g>
<g>
</g>
<g>
</g>
<g>
</g>
<g>
</g>
<g>
</g>
</svg>
