<?xml version="1.0" encoding="iso-8859-1"?>
<!-- Generator: Adobe Illustrator 19.0.0, SVG Export Plug-In . SVG Version: 6.00 Build 0)  -->
<svg version="1.1" id="Layer_1" xmlns="http://www.w3.org/2000/svg" xmlns:xlink="http://www.w3.org/1999/xlink" x="0px" y="0px"
	 viewBox="0 0 512 512" style="enable-background:new 0 0 512 512;" xml:space="preserve">
<path style="fill:#CC3B1F;" d="M372.871,411.825c-9.217,0-16.696-7.473-16.696-16.696c0-9.223,7.479-16.696,16.696-16.696
	c52.163,0,94.61-42.441,94.61-94.61c0-9.206-7.49-16.696-16.696-16.696h-77.914c-9.217,0-16.696-7.473-16.696-16.696
	s7.479-16.696,16.696-16.696h77.914c27.619,0,50.087,22.468,50.087,50.087C500.872,354.406,443.448,411.825,372.871,411.825z"/>
<path style="fill:#E6563A;" d="M272.696,512H127.999c-64.446,0-116.871-52.429-116.871-116.871V183.649
	c0-9.223,7.479-16.696,16.696-16.696h345.047c9.217,0,16.696,7.473,16.696,16.696v211.481C389.567,459.571,337.142,512,272.696,512z
	"/>
<path style="fill:#D9472B;" d="M372.871,166.953H200.347V512h72.349c64.446,0,116.871-52.429,116.871-116.871V183.649
	C389.567,174.426,382.088,166.953,372.871,166.953z"/>
<path style="fill:#FFD9B3;" d="M116.878,133.561c-5.077,0-10.088-2.304-13.37-6.679c-5.533-7.375-4.033-17.842,3.337-23.375
	c3.718-2.783,5.848-7.043,5.848-11.685c0-6.103-1.815-7.799-7.217-12.837c-7.098-6.619-17.827-16.63-17.827-37.251
	c0-15.25,7-29.25,19.196-38.403c7.402-5.516,17.848-4.033,23.381,3.343c5.533,7.375,4.033,17.842-3.337,23.375
	c-3.718,2.783-5.848,7.043-5.848,11.685c0,6.103,1.815,7.799,7.217,12.837c7.098,6.619,17.827,16.63,17.827,37.251
	c0,15.25-7,29.25-19.196,38.403C123.878,132.475,120.368,133.561,116.878,133.561z"/>
<path style="fill:#FFC080;" d="M283.836,133.561c-5.077,0-10.088-2.304-13.37-6.679c-5.533-7.375-4.033-17.842,3.337-23.375
	c3.718-2.783,5.848-7.043,5.848-11.685c0-6.103-1.815-7.799-7.217-12.837c-7.098-6.619-17.827-16.63-17.827-37.251
	c0-15.25,7-29.25,19.196-38.403c7.402-5.516,17.848-4.033,23.381,3.343s4.033,17.842-3.337,23.375
	c-3.718,2.783-5.848,7.043-5.848,11.685c0,6.103,1.815,7.799,7.217,12.837c7.098,6.619,17.827,16.63,17.827,37.251
	c0,15.25-7,29.25-19.196,38.403C290.836,132.475,287.326,133.561,283.836,133.561z"/>
<path style="fill:#FFEFD9;" d="M200.347,445.418c-3.87,0-7.739-1.342-10.865-4.021c-12.918-11.07-24.995-20.859-36.027-29.799
	c-44.05-35.708-75.876-61.513-75.876-103.317c0-41.289,30.631-73.631,69.734-73.631c25.446,0,42.326,13.059,53.033,26.756
	c10.706-13.696,27.587-26.756,53.033-26.756c39.104,0,69.734,32.343,69.734,73.631c0,41.805-31.827,67.609-75.876,103.316
	c-11.033,8.94-23.109,18.728-36.027,29.799C208.086,444.076,204.216,445.418,200.347,445.418z"/>
<g>
	<path style="fill:#FFD9B3;" d="M211.211,441.397c12.918-11.07,24.995-20.859,36.027-29.799
		c44.049-35.707,75.876-61.512,75.876-103.316c0-41.289-30.631-73.631-69.734-73.631c-25.446,0-42.326,13.059-53.033,26.756v184.013
		C204.216,445.418,208.086,444.076,211.211,441.397z"/>
	<path style="fill:#FFD9B3;" d="M229.565,91.822c0,15.249-7.001,29.251-19.2,38.4c-3.005,2.248-6.523,3.339-10.006,3.339h-0.011
		c-5.076,0-10.073-2.304-13.357-6.678c-5.532-7.38-4.029-17.842,3.339-23.374c3.718-2.783,5.844-7.046,5.844-11.687
		c0-6.1-1.814-7.803-7.213-12.834c-7.101-6.623-17.831-16.629-17.831-37.254c0-15.249,7.001-29.251,19.2-38.4
		c3.016-2.248,6.534-3.328,10.018-3.328c5.076,0,10.073,2.293,13.357,6.667c5.532,7.38,4.029,17.842-3.339,23.374
		c-3.718,2.783-5.844,7.046-5.844,11.687c0,6.1,1.814,7.803,7.213,12.834C218.835,61.19,229.565,71.197,229.565,91.822z"/>
</g>
<path style="fill:#FFC080;" d="M229.565,91.822c0,15.249-7.001,29.251-19.2,38.4c-3.005,2.248-6.523,3.339-10.006,3.339h-0.011
	V0.006c5.076,0,10.073,2.293,13.357,6.667c5.532,7.38,4.029,17.842-3.339,23.374c-3.718,2.783-5.844,7.046-5.844,11.687
	c0,6.1,1.814,7.803,7.213,12.834C218.835,61.19,229.565,71.197,229.565,91.822z"/>
<g>
</g>
<g>
</g>
<g>
</g>
<g>
</g>
<g>
</g>
<g>
</g>
<g>
</g>
<g>
</g>
<g>
</g>
<g>
</g>
<g>
</g>
<g>
</g>
<g>
</g>
<g>
</g>
<g>
</g>
</svg>
